<svg xmlns="http://www.w3.org/2000/svg" width="453" height="104" class="App__HeadlineLogo-sc-1g9np4c-2 ibSWdl"><path fill="#37003C" d="M14.617 7.93a33.02 33.02 0 0 1 7.331 4.715c-.225-1.071-1.042-6.297-1.523-9.546 2.43 1.715 8.085 5.646 9.923 6.927C31.11 7.677 33.731 0 33.731 0s4.732 7.716 5.54 9.002C40.258 7.96 45.918 1.62 47.381 0c.247 3.648.583 8.869.66 9.653a32.079 32.079 0 0 1 6.09-6.27c-1.575 3.124-2.324 7.436-2.665 10.9a41.402 41.402 0 0 0-31.739 3.9c-1.102-3.343-2.825-7.505-5.11-10.253Zm57.096 65.837-3.285-3.665c-.94 9.906-5.753 18.32-14.604 24.185l-1.345-5.346c-7.51 5.47-20.4 9.002-31.467 2.705 1.37-7.064 2.592-14.222-.03-22.796C14.855 78.414 9.425 82.14 9.425 82.14c-4.136-7.004-3.766-21.064-2.532-25.2L0 59.11c0-4.715 3.379-14.745 8.264-20.37l-4.307-.694A40.735 40.735 0 0 1 16.595 22.93c-1.604 2.572-1.63 8.856 3.077 11.252-2-3.524-2.239-7.879-.158-10.138 2.081-2.259 5.592-1.496 7.838.27-.668-1.967-2.62-4.445-5.531-4.612a39.961 39.961 0 0 1 18.42-4.48c1.243 0 2.47.056 3.681.168 1.932.78 4.766 3.523 6.09 5.225a10.532 10.532 0 0 0-1.018-4.432c7.191 1.757 10.638 4.715 12.055 6.134.294 3.125 1.226 5.002 2.455 7.981-2.327-2.632-8.182-6.858-10.974-7.887 0 0-.23 2.713-1.187 4.02-5.561-4.046-8.298-5.057-8.298-5.057-6.11.857-10.033 3.253-12.165 5.118l1.855 1.59c-3.68 1.145-6.072 4.334-6.072 4.334l3.29.523s-.333 3.858 4.467 6.284c4.106 2.07 10.021-.502 15.587 1.749-3.664-4.257-6.179-6.16-6.179-6.16a14.548 14.548 0 0 0-2.48-.296c-1.277 0-3.179.262-5.273-.557A19.79 19.79 0 0 1 33 32.295a12.376 12.376 0 0 1 6.323-3.245 21.363 21.363 0 0 1 6.064 2.958 5.439 5.439 0 0 1 3.647-1.715s-1.843 1.715-1.277 3.858a69.81 69.81 0 0 1 5.587 5.851c2.979-1.637 9.395-1.26 10.715.283-1.673-2.186-4.09-4.012-5.958-5.573-.225-.818-2.263-3.677-2.608-3.939a10.926 10.926 0 0 1 3.668 2.143 4.712 4.712 0 0 1 2.693-1.761 4.414 4.414 0 0 1 1.502 3.077c-.324.4-.72.736-1.165.99l3.131 3.43.315-2.452c7.204 10.395 11.145 22.431 6.077 37.567ZM58.096 51.383v-5.371a17.954 17.954 0 0 1-4.927-2.76c-5.107.78-11.294 5.958-11.294 5.958s2.094 3.995 4.375 8.303c4.012.557 9.918-4.548 11.842-6.13h.004Zm5.136 9.739a10.286 10.286 0 0 0-2.157-4.287l-3.983.099s-5.374 4.655-8.655 4.762c0 0 1.808 3.387 2.715 5.144 1.808-.394 4.982-1.83 6.259-3.326.54 1.951.772 3.977.685 6 1.787-1.07 4.268-3.908 5.132-8.392h.004ZM64.87 43.47a25.81 25.81 0 0 1-3.714 2.649v5.392c1.442 1.616 2.859 2.958 3.923 5.393 2.025-3.648 1.642-9.023-.213-13.434h.004Zm182.884 9.992v29.335H235.2V54.819c0-8.132-3.858-12.293-10.345-12.293-7.345 0-12.468 5.226-12.468 16.166v24.105h-12.58V31.513h11.212l1.257 6.191c3.675-4.645 8.702-6.968 15.078-6.968 12.472-.022 20.4 8.789 20.4 22.726Zm25.317-36.784v14.835h18.268v11.108h-18.268v21.975c0 4.723 2.22 7.162 6.958 7.162a19.07 19.07 0 0 0 8.6-2.323l4.16 10.554a29.768 29.768 0 0 1-14.209 3.58c-11.216 0-18.076-6.487-18.076-17.131V42.62h-8.214V31.513h8.206V16.678h12.575Zm75.484 14.835v51.284h-11.212l-1.256-5.909c-3.859 4.165-9.668 6.681-16.335 6.681-14.401 0-24.648-10.94-24.648-26.427 0-15.586 10.247-26.428 24.648-26.428 6.667 0 12.468 2.516 16.335 6.681l1.256-5.882h11.212Zm-12.567 26.136v-.97c0-9.194-6.86-14.324-14.208-14.324-8.215 0-14.11 6.388-14.11 14.808s5.895 14.81 14.11 14.81c7.344-.022 14.208-5.149 14.208-14.346v.022Zm24.516 10.648a21.276 21.276 0 0 0 13.05 4.646c4.717 0 7.538-1.55 7.538-4.358 0-8.128-24.936-4.547-24.936-22.362 0-9.193 7.636-15.487 19.04-15.487a29.982 29.982 0 0 1 17.978 5.81l-6.2 9.368c-3.674-2.903-7.833-4.551-12.005-4.551-4.171 0-6.28 1.648-6.28 3.971 0 7.549 24.935 3.968 24.935 22.263 0 9.485-8.12 15.972-20.395 15.972-6.86 0-13.437-1.837-18.363-5.032l5.638-10.24ZM453 31.513l-21.36 54.186c-5.415 13.74-13.05 18.295-24.36 18.295a17.687 17.687 0 0 1-5.317-.678l1.642-12.486c1.084.206 2.185.304 3.288.292 6.003 0 9.664-1.743 12.082-7.651l-22.997-51.958h14.015l15.756 36.496 13.531-36.496H453Zm-350.945-3.315v15.488h29.48v12.198h-29.48v26.913H89V16h46.111v12.198h-33.056Zm88.826 3.315v51.284h-11.215l-1.257-5.909c-3.858 4.165-9.663 6.681-16.335 6.681-14.401 0-24.648-10.94-24.648-26.427 0-15.586 10.247-26.428 24.648-26.428 6.672 0 12.468 2.516 16.335 6.681l1.257-5.882h11.215Zm-12.566 26.136v-.97c0-9.194-6.86-14.324-14.213-14.324-8.214 0-14.11 6.388-14.11 14.808s5.896 14.81 14.11 14.81c7.349-.022 14.213-5.149 14.213-14.346v.022Z"/></svg>